<?xml version="1.0" standalone="no"?>
<!DOCTYPE svg PUBLIC "-//W3C//DTD SVG 1.1//EN" "http://www.w3.org/Graphics/SVG/1.1/DTD/svg11.dtd" >
<svg xmlns="http://www.w3.org/2000/svg" xmlns:xlink="http://www.w3.org/1999/xlink" version="1.1" viewBox="-10 0 1010 1000">
  <g transform="matrix(1 0 0 -1 0 800)">
   <path fill="currentColor"
d="M441.655 282.966h104.4v-463.101h-104.4v463.101zM700.855 643.766l34.7998 20.9004c160.8 -144.101 153.601 -369.601 -16.7998 -503.801l-32.4004 22l-33.5996 22c139.2 111.101 146.4 300.301 14.4004 418zM774.056 759.266l33.5996 20.9004
c246 -206.801 235.2 -543.4 -24 -737l-32.3994 23.0996l-31.2002 23.0996c225.6 168.301 235.2 467.5 20.3994 647.9zM627.655 530.466l36.7803 17.9463c75.1104 -79.5088 71.4414 -190.935 -8.61426 -266.203l-35.3496 20.3545l-35.3496 20.3525
c55.501 52.1865 58.165 133.593 6.11816 188.688zM431.015 414.681c0 30.6143 29.0391 55.9023 65.3389 55.9023c36.3008 0 65.3408 -25.2881 65.3408 -55.9023c0 -30.6123 -29.04 -55.9014 -65.3408 -55.9014c-36.2998 0 -65.3389 25.2891 -65.3389 55.9014z
M291.913 190.513l-34.3623 -20.5742c-161.252 144.065 -153.929 368.742 16.3105 503.75l32.9727 -22.4062l32.9736 -22.4062c-139.226 -110.411 -145.403 -299.972 -13.5293 -417.789zM218.932 75.2373l-33.4844 -21.335
c-118.798 99.9014 -177.656 230.069 -177.656 359.721c0 138.963 67.6162 277.33 201.52 377.197l32.0469 -23.1162l32.0459 -23.1201c-225.699 -168.33 -235.238 -467.839 -20.9844 -648.012zM365.323 304.145l-36.5986 -18.4043
c-75.1104 79.5098 -71.4414 190.934 8.61426 266.203l35.3496 -20.3525l35.3496 -20.3545c-55.501 -52.1855 -58.165 -133.592 -6.11816 -188.688z" />
  </g>

</svg>
