<?xml version="1.0" standalone="no"?>
<!DOCTYPE svg PUBLIC "-//W3C//DTD SVG 1.1//EN" "http://www.w3.org/Graphics/SVG/1.1/DTD/svg11.dtd" >
<svg xmlns="http://www.w3.org/2000/svg" xmlns:xlink="http://www.w3.org/1999/xlink" version="1.1" viewBox="-10 0 1010 1000">
  <g transform="matrix(1 0 0 -1 0 800)">
   <path fill="currentColor"
d="M551.207 547.556c30.3281 -26.6836 60.6572 -53.3682 90.9863 -80.0518c-30.3096 -26.6621 -60.6201 -53.3242 -90.9307 -79.9854c-0.0185547 53.3457 -0.0371094 106.691 -0.0537109 160.037h-0.00195312zM551.207 57.5234h0.00195312
c0.0166016 53.3438 0.0351562 106.689 0.0537109 160.035c30.3105 -26.666 60.6211 -53.333 90.9307 -80.001c-30.3291 -26.6777 -60.6582 -53.3574 -90.9863 -80.0342zM454.062 302.538c-65.5684 -57.8359 -131.138 -115.673 -196.709 -173.511
c19.0049 -16.7246 38.0078 -33.4502 57.0117 -50.1748c52.2402 45.9785 104.48 91.959 156.725 137.938v-330.536c94.9922 83.5645 189.984 167.13 284.979 250.697c-62.7305 55.1953 -125.46 110.392 -188.188 165.586c62.7178 55.1807 125.434 110.36 188.15 165.538
c-94.9873 83.5674 -189.973 167.133 -284.96 250.698v-330.52c-52.2295 45.9736 -104.458 91.9473 -156.687 137.922c-19.0039 -16.7148 -38.0068 -33.4297 -57.0088 -50.1436c65.5625 -57.832 131.124 -115.662 196.688 -173.495zM506.756 -181.602
c-21.8818 0.00195312 -43.7783 0.828125 -65.5361 2.7998c-107.424 6.67871 -211.48 56.4404 -261.65 137.422c-67.7656 105.933 -78.3291 228.387 -78.3291 346.881c0 13.6279 0.139648 27.2031 0.348633 40.6953c5.94141 118.077 21.7559 245.894 112.107 342.244
c68.3291 73.0918 181.602 98.4902 289.12 98.4902c12.5137 0 24.9502 -0.34375 37.2275 -0.99707c111.983 -1.68848 227.642 -43.8477 285.098 -127.179c79.5889 -111.967 86.9219 -247.186 87.3408 -374.011c-3.55859 -120.994 -15.4541 -250.89 -99.6582 -353.9
c-66.5234 -82.9707 -191.282 -115.005 -306.068 -112.445z" />
  </g>

</svg>
