<?xml version="1.0" standalone="no"?>
<!DOCTYPE svg PUBLIC "-//W3C//DTD SVG 1.1//EN" "http://www.w3.org/Graphics/SVG/1.1/DTD/svg11.dtd" >
<svg xmlns="http://www.w3.org/2000/svg" xmlns:xlink="http://www.w3.org/1999/xlink" version="1.1" viewBox="-10 0 1126 1000">
  <g transform="matrix(1 0 0 -1 0 800)">
   <path fill="currentColor"
d="M671.55 571.647h-241.989v112.853h241.989v-112.853zM758.318 37.3555h240.988v-111.853h-240.988v111.853zM112.218 41.3555c83.6631 -1.88477 167.326 -1.72656 250.989 0v-112.853h-250.989v112.853zM729.449 484.848h38.9004v38.9004v209.651v38.9004h-38.9004
h-358.789h-38.8994v-38.9004v-209.651v-38.9004h38.8994h133.657v-137.147h89.1006v137.147h136.031zM699.419 129.155h-38.9014v-38.9004v-209.651v-38.9004h38.9014h358.789h38.8994v38.9004v209.651v38.9004h-38.8994h-133.658v133.845h-89.0996v-133.845h-136.031z
M60.3184 129.155h-38.9004v-38.9004v-209.651v-38.9004h38.9004h358.789h38.8994v38.9004v209.651v38.9004h-38.8994h-133.657v133.845h-89.1006v-133.845h-136.031zM504.317 347.7h89.1006l511.732 -2v-84.7002l-180.601 2h-89.0996h-550h-89.1006h-189.5v84.7002h497.468z
" />
  </g>

</svg>
