<?xml version="1.0" standalone="no"?>
<!DOCTYPE svg PUBLIC "-//W3C//DTD SVG 1.1//EN" "http://www.w3.org/Graphics/SVG/1.1/DTD/svg11.dtd" >
<svg xmlns="http://www.w3.org/2000/svg" xmlns:xlink="http://www.w3.org/1999/xlink" version="1.1" viewBox="-10 0 1010 1000">
  <g transform="matrix(1 0 0 -1 0 800)">
   <path fill="currentColor"
d="M459.367 671.164c13.3516 0.593404 27.1642 0.879496 40.5535 0.879496c25.3919 0 49.2618 -1.02891 65.5793 -2.942c5.67188 -0.6875 15.3828 -1.89062 21.4844 -2.57812c33.9453 -4.03906 59.2109 -9.19531 97.1094 -19.8516
c81.9844 -23.1172 162.852 -64.1953 228.594 -116.273c23.8047 -18.9062 54.3125 -46.5781 59.3828 -53.8828c4.55469 -6.61719 6.35938 -13.4062 6.35938 -24.3203c0 -5.5 -0.515625 -11.2578 -1.28906 -14.1797c-3.09375 -11.8594 -11.6875 -23.375 -22.6875 -30.5078
c-7.75 -5 -17.2727 -7.68182 -26.3864 -7.68182c-3.41761 0 -6.7777 0.377131 -9.9652 1.15057c-9.71094 2.32031 -16.6719 6.44531 -27.0703 16.0703c-44.5156 41.25 -88.6016 71.6719 -142.312 98.0547c-36.5234 17.9609 -75.5391 31.9688 -112.75 40.5625
c-56.2031 12.9766 -85.5078 16.7578 -130.195 16.7578c-41.7656 0 -88.1719 -4.55469 -123.75 -12.1172c-33.1719 -7.13281 -90.3203 -26.4688 -123.922 -42.1094c-47.6953 -22.0859 -100.203 -57.1484 -138.961 -92.8125
c-16.0703 -14.7812 -19.7656 -17.7891 -26.2969 -21.0547c-6.95355 -3.41717 -14.0724 -5.12576 -21.1783 -5.12576c-8.26262 0 -16.5076 2.31015 -24.4545 6.93044c-6.10156 3.52344 -16.6719 14.5234 -19.9375 20.7969
c-4.02273 7.68788 -6.04618 16.1197 -6.04618 24.3885c0 7.62943 1.7226 15.1202 5.18681 21.7599c7.13281 13.4922 55.3438 54.9141 96.9375 83.1875c44.1719 30.0781 94.7031 56.2891 138.789 72.0156c24.6641 8.76562 67.8047 22.6875 78.6328 25.2656
c10.3125 2.40625 52.7656 10.6562 61.875 12.0312c24.1484 3.4375 36.8672 4.72656 56.7188 5.58594zM473.547 489.836c8.84035 0.446482 17.825 0.666153 26.7291 0.666153c16.8033 0 33.3195 -0.782321 48.0365 -2.29897
c95.1328 -10.1406 183.734 -46.1484 256.523 -104.5c12.6328 -10.0547 36.6094 -31.9688 40.3906 -36.8672c6.50455 -8.42316 9.79845 -18.681 9.79845 -29.0807c0 -8.69887 -2.3046 -17.497 -6.96252 -25.4037c-4.03906 -6.70312 -14.6094 -16.8438 -21.4844 -20.5391
c-6.53985 -3.4451 -15.0634 -5.34287 -23.1446 -5.34287c-3.81225 0 -7.52604 0.42234 -10.8867 1.30381c-8.9375 2.32031 -14.3516 5.84375 -27.1562 17.6172c-54.5703 50.0156 -119.023 83.4453 -187.859 97.4531c-23.4609 4.72656 -56.6328 8.25 -78.6328 8.25
c-63.5938 0 -134.75 -19.3359 -191.211 -51.9922c-27.0703 -15.6406 -44.8594 -28.9609 -77.0859 -58.0078c-9.53906 -8.59375 -14.4375 -11.4297 -23.5469 -13.75c-4.2105 -1.08518 -7.69748 -1.62223 -11.1697 -1.62223c-3.40206 0 -6.78994 0.515571 -10.8303 1.5363
c-13.3203 3.4375 -23.4609 10.7422 -31.5391 22.8594c-5.65242 8.47863 -8.56834 17.9174 -8.56834 27.4552c0 3.22303 0.332973 6.45736 1.00584 9.66977c2.40625 11.2578 4.8125 14.9531 17.7031 27.7578c43.8281 43.4844 103.984 81.2969 166.977 104.93
c28.6172 10.6562 50.875 16.4141 93.9297 24.2344c18.3906 3.35156 30.1641 4.72656 48.9844 5.67188zM477.844 308.078c1.40955 0.100682 6.09239 0.142386 12.2002 0.142386c4.31885 0 9.35017 -0.0208519 14.4405 -0.0564484
c23.7188 -0.257812 35.5781 -1.54688 57.5781 -6.10156c57.4062 -12.0312 110 -39.9609 150.562 -79.8359c8.9375 -8.85156 10.9141 -11.2578 13.4922 -16.7578c3.18299 -6.75634 4.73965 -13.8379 4.73965 -20.8672c0 -13.0877 -5.39642 -25.9939 -15.7396 -36.2813
c-9.625 -9.71094 -19.8516 -14.2656 -33.1719 -14.8672c-1.30865 -0.057523 -2.55774 -0.0885748 -3.75748 -0.0885748c-13.1393 0 -20.3606 3.72438 -35.0863 17.1901c-6.27344 5.75781 -14.0938 12.4609 -17.4453 14.9531
c-29.9062 22.4297 -62.8203 36.5234 -96.5078 41.1641c-6.39345 0.91335 -17.0572 1.36445 -27.7356 1.36445c-10.4211 0 -20.8563 -0.429624 -27.3503 -1.27852c-31.625 -4.125 -59.0391 -14.2656 -85.25 -31.4531c-10.3984 -6.78906 -16.7578 -11.8594 -29.5625 -23.4609
c-5.67188 -5.15625 -12.2031 -10.6562 -14.6094 -12.1172c-7.68218 -4.89139 -16.2027 -7.23646 -24.6906 -7.23646c-15.8195 0 -31.5259 8.14593 -41.4813 23.1349c-6.36904 9.59492 -9.55356 19.3491 -9.55356 28.8601c0 10.2522 3.70015 20.222 11.1004 29.4055
c5.67188 7.04688 25.5234 24.8359 38.5 34.5469c34.375 25.6953 75.8828 44.2578 119.797 53.625c9.96875 2.14844 30.7656 5.24219 39.5312 6.01562zM487.297 139.297c1.92688 0.291951 5.95643 0.464882 10.2557 0.464882c2.02829 0 4.1166 -0.0384904 6.07246 -0.121132
c45.1172 -1.54688 86.1953 -33.6016 98.8281 -77.2578c2.40625 -8.37891 3.60938 -18.3691 3.60938 -28.3594s-1.20312 -19.9805 -3.60938 -28.3594c-11.2578 -39.2734 -47.2656 -71.5 -85.7656 -76.8281c-4.29688 -0.601562 -10.1836 -0.902344 -16.0596 -0.902344
c-5.87598 0 -11.7412 0.300781 -15.9951 0.902344c-37.4688 5.15625 -70.9844 32.7422 -84.4766 69.2656c-4.13033 11.2109 -6.17173 23.2289 -6.17173 35.2458c0 15.9864 3.61278 31.971 10.7264 46.0511c16.5 32.7422 46.9219 54.8281 82.5859 59.8984z" />
  </g>

</svg>
