<?xml version="1.0" encoding="UTF-8" standalone="no"?>
<svg
   xmlns:dc="http://purl.org/dc/elements/1.1/"
   xmlns:cc="http://creativecommons.org/ns#"
   xmlns:rdf="http://www.w3.org/1999/02/22-rdf-syntax-ns#"
   xmlns:svg="http://www.w3.org/2000/svg"
   xmlns="http://www.w3.org/2000/svg"
   xmlns:sodipodi="http://sodipodi.sourceforge.net/DTD/sodipodi-0.dtd"
   xmlns:inkscape="http://www.inkscape.org/namespaces/inkscape"
   width="24"
   height="24"
   viewBox="0 0 24 24"
   fill="none"
   stroke="currentColor"
   stroke-width="2"
   stroke-linecap="round"
   stroke-linejoin="round"
   class="svg-icon ethernet"
   version="1.1"
   id="svg10"
   sodipodi:docname="heat-bed.svg"
   inkscape:version="0.92.4 (5da689c313, 2019-01-14)">
  <metadata
     id="metadata16">
    <rdf:RDF>
      <cc:Work
         rdf:about="svg-icon from https://github.com/luc-github/svg-icons">
        <dc:format>image/svg+xml</dc:format>
        <dc:type
           rdf:resource="http://purl.org/dc/dcmitype/StillImage" />
        <dc:title></dc:title>
      </cc:Work>
    </rdf:RDF>
  </metadata>
  <defs
     id="defs14" />
  <sodipodi:namedview
     pagecolor="#ffffff"
     bordercolor="#666666"
     borderopacity="1"
     objecttolerance="10"
     gridtolerance="10"
     guidetolerance="10"
     inkscape:pageopacity="0"
     inkscape:pageshadow="2"
     inkscape:window-width="1920"
     inkscape:window-height="1017"
     id="namedview12"
     showgrid="false"
     inkscape:zoom="39.333333"
     inkscape:cx="7.868644"
     inkscape:cy="15.654928"
     inkscape:window-x="-8"
     inkscape:window-y="32"
     inkscape:window-maximized="1"
     inkscape:current-layer="svg10" />
  <g
     id="g1041">
    <path
       style="fill:#000000;stroke:#ffffff;stroke-width:0;stroke-miterlimit:4;stroke-dasharray:none;stroke-opacity:1"
       d="m 2.9322034,16.728813 c 6.0621472,0 12.1242946,0 18.1864416,0 1.236985,-0.03725 1.375786,2.057315 0.202027,2.26789 -2.40522,0.04683 -4.814768,0.0071 -7.221669,0.02025 -3.722267,0 -7.4445331,0 -11.1667996,0 -1.3478497,0.03003 -1.3421895,-2.318572 0,-2.288136 z"
       id="rect1008"
       inkscape:connector-curvature="0" />
    <path
       style="fill:none;stroke:#000000;stroke-width:1px;stroke-linecap:butt;stroke-linejoin:miter;stroke-opacity:1"
       d="M 6.9661017,3.2542373 C 8.110369,4.7997156 8.893668,6.8163933 8.287757,8.736918 c -0.4588709,1.659345 -1.6371728,3.298689 -1.0655785,5.087395 0.1687206,0.572695 0.4645561,1.099895 0.8117198,1.582466"
       id="path1014"
       inkscape:connector-curvature="0" />
    <path
       style="fill:none;stroke:#000000;stroke-width:1px;stroke-linecap:butt;stroke-linejoin:miter;stroke-opacity:1"
       d="m 11.316737,3.2529555 c 1.144267,1.5454783 1.927566,3.562156 1.321655,5.4826806 -0.458871,1.6593449 -1.637172,3.2986889 -1.065578,5.0873949 0.168721,0.572695 0.464556,1.099895 0.81172,1.582466"
       id="path1014-2"
       inkscape:connector-curvature="0" />
    <path
       style="fill:none;stroke:#000000;stroke-width:1px;stroke-linecap:butt;stroke-linejoin:miter;stroke-opacity:1"
       d="m 15.638772,3.2275318 c 1.144267,1.5454783 1.927566,3.562156 1.321655,5.4826806 -0.458871,1.6593456 -1.637173,3.2986886 -1.065579,5.0873946 0.168721,0.572695 0.464556,1.099895 0.81172,1.582466"
       id="path1014-29"
       inkscape:connector-curvature="0" />
  </g>
</svg>
