<?xml version="1.0" encoding="UTF-8" standalone="no"?>
<svg
   xmlns:dc="http://purl.org/dc/elements/1.1/"
   xmlns:cc="http://creativecommons.org/ns#"
   xmlns:rdf="http://www.w3.org/1999/02/22-rdf-syntax-ns#"
   xmlns:svg="http://www.w3.org/2000/svg"
   xmlns="http://www.w3.org/2000/svg"
   xmlns:sodipodi="http://sodipodi.sourceforge.net/DTD/sodipodi-0.dtd"
   xmlns:inkscape="http://www.inkscape.org/namespaces/inkscape"
   width="24"
   height="24"
   viewBox="0 0 24 24"
   fill="none"
   stroke="currentColor"
   stroke-width="2"
   stroke-linecap="round"
   stroke-linejoin="round"
   class="svg-icon leveling"
   version="1.1"
   id="svg10"
   sodipodi:docname="leveling.svg"
   inkscape:version="0.92.4 (5da689c313, 2019-01-14)">
  <metadata
     id="metadata16">
    <rdf:RDF>
      <cc:Work
         rdf:about="svg-icon from https://github.com/luc-github/svg-icons">
        <dc:format>image/svg+xml</dc:format>
        <dc:type
           rdf:resource="http://purl.org/dc/dcmitype/StillImage" />
        <dc:title />
      </cc:Work>
    </rdf:RDF>
  </metadata>
  <defs
     id="defs14" />
  <sodipodi:namedview
     pagecolor="#ffffff"
     bordercolor="#666666"
     borderopacity="1"
     objecttolerance="10"
     gridtolerance="10"
     guidetolerance="10"
     inkscape:pageopacity="0"
     inkscape:pageshadow="2"
     inkscape:window-width="1920"
     inkscape:window-height="1017"
     id="namedview12"
     showgrid="false"
     inkscape:zoom="13.906433"
     inkscape:cx="14.135593"
     inkscape:cy="8.7966101"
     inkscape:window-x="1912"
     inkscape:window-y="32"
     inkscape:window-maximized="1"
     inkscape:current-layer="svg10"
     showguides="false" />
  <g
     id="leveling">
    <path
       id="rect821"
       d="M 7.9824219 0.7734375 L 7.9824219 2.0351562 C 7.5194598 2.0350904 7.0567003 2.0338085 6.59375 2.0332031 L 6.421875 2.046875 C 5.2072748 2.3411997 5.6857816 3.8137079 5.5957031 4.7167969 C 5.5781513 5.4836946 5.4187494 6.7314048 6.4394531 6.9082031 C 6.7896866 6.9101894 7.1399826 6.9090089 7.4902344 6.9101562 L 7.4804688 6.9160156 L 11.585938 9.9355469 L 16.060547 6.9238281 C 16.438102 6.9247688 16.812086 6.901975 17.171875 6.7792969 C 18.056881 6.2730076 17.570742 5.0596604 17.693359 4.2324219 C 17.710914 3.4655241 17.868359 2.2178142 16.847656 2.0410156 C 16.38539 2.0388964 15.923224 2.0402338 15.460938 2.0390625 L 15.460938 0.7734375 L 7.9824219 0.7734375 z "
       style="fill:#000000;stroke:none;stroke-width:0.37110355;stroke-miterlimit:4;stroke-dasharray:none;stroke-opacity:1" />
    <path
       style="fill:#000000;stroke:none;stroke-width:0.5;stroke-miterlimit:4;stroke-dasharray:none;stroke-opacity:1"
       d="m 2.4832336,20.135593 c 5.7004428,0 11.4008854,0 17.1013284,0 0.803802,-0.01143 0.918495,0.853769 0.856115,1.468946 0.09645,0.74531 -0.679795,1.0752 -1.30181,0.971732 -5.551878,0 -11.1037556,0 -16.6556334,0 -0.8038016,0.01143 -0.9184946,-0.853768 -0.856115,-1.468945 -0.055877,-0.499314 0.3393886,-0.984441 0.856115,-0.971733 z"
       id="rect840"
       inkscape:connector-curvature="0" />
    <path
       style="fill:#000000;fill-opacity:1;stroke:#000000;stroke-width:0.61857826px;stroke-linecap:butt;stroke-linejoin:miter;stroke-opacity:1"
       d="m 11.529297,10.457031 c -0.698442,0.684373 -1.398903,1.366689 -2.0957032,2.052735 0.4270834,0 0.8541672,0 1.2812502,0 0,1.630859 0,3.261719 0,4.892578 0.407552,0 0.815104,0 1.222656,0 0,-1.630859 0,-3.261719 0,-4.892578 0.466797,0 0.933594,0 1.400391,0 -0.603139,-0.684003 -1.205711,-1.368506 -1.808594,-2.052735 z m -2.2089845,7.16211 c 0.6984645,0.683699 1.3971435,1.36718 2.0957035,2.050781 0.603,-0.683474 1.203808,-1.368885 1.808593,-2.050781 -1.301432,0 -2.602864,0 -3.9042965,0 z"
       id="path842"
       inkscape:connector-curvature="0" />
  </g>
</svg>
