<?xml version="1.0" encoding="UTF-8" standalone="no"?>
<svg
   xmlns:dc="http://purl.org/dc/elements/1.1/"
   xmlns:cc="http://creativecommons.org/ns#"
   xmlns:rdf="http://www.w3.org/1999/02/22-rdf-syntax-ns#"
   xmlns:svg="http://www.w3.org/2000/svg"
   xmlns="http://www.w3.org/2000/svg"
   xmlns:sodipodi="http://sodipodi.sourceforge.net/DTD/sodipodi-0.dtd"
   xmlns:inkscape="http://www.inkscape.org/namespaces/inkscape"
   width="24"
   height="24"
   viewBox="0 0 24 24"
   fill="none"
   stroke="currentColor"
   stroke-width="2"
   stroke-linecap="round"
   stroke-linejoin="round"
   class="svg-icon no-ethernet"
   version="1.1"
   id="svg10"
   sodipodi:docname="no-ethernet.svg"
   inkscape:version="0.92.4 (5da689c313, 2019-01-14)">
  <metadata
     id="metadata16">
    <rdf:RDF>
      <cc:Work
         rdf:about="svg-icon from https://github.com/luc-github/svg-icons">
        <dc:format>image/svg+xml</dc:format>
        <dc:type
           rdf:resource="http://purl.org/dc/dcmitype/StillImage" />
        <dc:title />
      </cc:Work>
    </rdf:RDF>
  </metadata>
  <defs
     id="defs14" />
  <sodipodi:namedview
     pagecolor="#ffffff"
     bordercolor="#666666"
     borderopacity="1"
     objecttolerance="10"
     gridtolerance="10"
     guidetolerance="10"
     inkscape:pageopacity="0"
     inkscape:pageshadow="2"
     inkscape:window-width="1920"
     inkscape:window-height="1017"
     id="namedview12"
     showgrid="false"
     inkscape:zoom="39.333333"
     inkscape:cx="7.868644"
     inkscape:cy="12"
     inkscape:window-x="-8"
     inkscape:window-y="32"
     inkscape:window-maximized="1"
     inkscape:current-layer="svg10" />
  <g
     id="no-ethernet">
    <path
       style="fill:none;stroke-width:1.69745648"
       d="m 2.0351683,17.433474 c 2.6093222,0 5.2186445,0 7.8279667,0 0,1.524577 0,3.049153 0,4.57373 -2.6093222,0 -5.2186445,0 -7.8279667,0 0,-1.524577 0,-3.049153 0,-4.57373 z"
       id="rect3795-0"
       inkscape:connector-curvature="0" />
    <path
       style="fill:none;stroke-width:1.69745648"
       d="m 7.9843217,2.6199144 c 2.6093223,0 5.2186453,0 7.8279673,0 0,1.5245767 0,3.0491533 0,4.57373 -2.609322,0 -5.218645,0 -7.8279673,0 0,-1.5245767 0,-3.0491533 0,-4.57373 z"
       id="rect3795-0-81"
       inkscape:connector-curvature="0" />
    <path
       style="fill:none;stroke-width:1.69745648"
       d="m 14.797881,17.390534 c 2.609322,0 5.218645,0 7.827967,0 0,1.524577 0,3.049153 0,4.57373 -2.609322,0 -5.218645,0 -7.827967,0 0,-1.524577 0,-3.049153 0,-4.57373 z"
       id="rect3795-0-9"
       inkscape:connector-curvature="0" />
    <path
       style="fill:#000000;stroke:#ffffff;stroke-width:0;stroke-miterlimit:4;stroke-dasharray:none;stroke-opacity:1"
       d="m 2.3728814,11.161017 c 0.9083216,0.04622 1.8451649,-0.109494 2.7293551,0.114758 1.0716681,0.54435 -0.1523607,1.49255 -0.9280361,1.2327 -0.786099,-0.04153 -1.5989274,0.102136 -2.3611823,-0.114758 -0.92553646,-0.380585 -0.1877219,-1.351173 0.5598633,-1.2327 z"
       id="rect930"
       inkscape:connector-curvature="0" />
    <path
       style="fill:#000000;stroke:#ffffff;stroke-width:0;stroke-miterlimit:4;stroke-dasharray:none;stroke-opacity:1"
       d="m 8.2457628,11.173729 c 0.9083216,0.04622 1.8451652,-0.109494 2.7293552,0.114758 1.071668,0.54435 -0.152361,1.492549 -0.928036,1.2327 -0.7860992,-0.04153 -1.5989276,0.102135 -2.3611825,-0.114758 -0.9255365,-0.380585 -0.1877219,-1.351174 0.5598633,-1.2327 z"
       id="rect930-2"
       inkscape:connector-curvature="0" />
    <path
       style="fill:#000000;stroke:#ffffff;stroke-width:0;stroke-miterlimit:4;stroke-dasharray:none;stroke-opacity:1"
       d="m 14.220339,11.17373 c 0.908321,0.04622 1.845165,-0.109494 2.729355,0.114757 1.071668,0.544351 -0.152361,1.49255 -0.928036,1.232701 -0.786099,-0.04153 -1.598928,0.102135 -2.361182,-0.114758 -0.925537,-0.380585 -0.187722,-1.351174 0.559863,-1.2327 z"
       id="rect930-25"
       inkscape:connector-curvature="0" />
    <path
       style="fill:#000000;stroke:#ffffff;stroke-width:0;stroke-miterlimit:4;stroke-dasharray:none;stroke-opacity:1"
       d="m 19.915253,11.148306 c 0.908321,0.04622 1.845165,-0.109494 2.729355,0.114757 1.071668,0.544351 -0.152361,1.49255 -0.928036,1.232701 -0.786099,-0.04153 -1.598928,0.102135 -2.361183,-0.114758 -0.925536,-0.380585 -0.187722,-1.351174 0.559864,-1.2327 z"
       id="rect930-6"
       inkscape:connector-curvature="0" />
    <path
       style="fill:#000000;stroke:#ffffff;stroke-width:0;stroke-miterlimit:4;stroke-dasharray:none;stroke-opacity:1"
       d="m 11.356481,9.6648726 c 0.0636,-0.9072705 -0.07416,-1.8469226 0.166976,-2.7266586 0.564762,-1.0610529 1.489361,0.1809004 1.214712,0.9514602 -0.05656,0.7851601 0.07151,1.6005894 -0.15993,2.3585528 -0.398231,0.918083 -1.354519,0.161826 -1.221758,-0.5833544 z"
       id="rect930-3"
       inkscape:connector-curvature="0" />
    <path
       style="fill:#000000;stroke:#ffffff;stroke-width:0;stroke-miterlimit:4;stroke-dasharray:none;stroke-opacity:1"
       d="m 5.4073276,17.139449 c 0.063598,-0.90727 -0.074158,-1.846923 0.1669769,-2.726658 0.5647624,-1.061053 1.4893602,0.1809 1.2147115,0.95146 -0.056565,0.78516 0.071513,1.60059 -0.15993,2.358553 -0.3982307,0.918083 -1.3545193,0.161825 -1.2217584,-0.583355 z"
       id="rect930-3-8"
       inkscape:connector-curvature="0" />
    <path
       style="fill:#000000;stroke:#ffffff;stroke-width:0;stroke-miterlimit:4;stroke-dasharray:none;stroke-opacity:1"
       d="m 17.63614,16.580127 c 0.0636,-0.907271 -0.07416,-1.846922 0.166977,-2.726658 0.564763,-1.061054 1.489361,0.1809 1.214712,0.95146 -0.05656,0.78516 0.07151,1.600589 -0.159931,2.358553 -0.39823,0.918082 -1.354518,0.161826 -1.221758,-0.583355 z"
       id="rect930-3-3"
       inkscape:connector-curvature="0" />
  </g>
</svg>
